<svg xmlns="http://www.w3.org/2000/svg" width="49.068" height="49.057" viewBox="0 0 49.068 49.057">
  <path id="Icon_awesome-instagram" data-name="Icon awesome-instagram" d="M24.536,13.443A12.577,12.577,0,1,0,37.113,26.02,12.558,12.558,0,0,0,24.536,13.443Zm0,20.754a8.177,8.177,0,1,1,8.177-8.177A8.192,8.192,0,0,1,24.536,34.2ZM40.561,12.928a2.934,2.934,0,1,1-2.934-2.934A2.927,2.927,0,0,1,40.561,12.928Zm8.33,2.977c-.186-3.93-1.084-7.411-3.963-10.279S38.58,1.861,34.65,1.664c-4.05-.23-16.19-.23-20.24,0-3.919.186-7.4,1.084-10.279,3.952S.366,11.965.169,15.895c-.23,4.05-.23,16.19,0,20.24.186,3.93,1.084,7.411,3.963,10.279s6.349,3.766,10.279,3.963c4.05.23,16.19.23,20.24,0,3.93-.186,7.411-1.084,10.279-3.963s3.766-6.349,3.963-10.279c.23-4.05.23-16.179,0-20.229ZM43.659,40.48A8.279,8.279,0,0,1,39,45.144c-3.229,1.281-10.892.985-14.46.985s-11.242.285-14.46-.985A8.279,8.279,0,0,1,5.412,40.48c-1.281-3.229-.985-10.892-.985-14.46s-.285-11.242.985-14.46A8.279,8.279,0,0,1,10.075,6.9c3.229-1.281,10.892-.985,14.46-.985S35.778,5.627,39,6.9a8.279,8.279,0,0,1,4.663,4.663c1.281,3.229.985,10.892.985,14.46S44.94,37.262,43.659,40.48Z" transform="translate(0.004 -1.492)"/>
</svg>
