<?xml version="1.0" encoding="UTF-8"?>
<svg id="Layer_1" data-name="Layer 1" xmlns="http://www.w3.org/2000/svg" viewBox="0 0 168.1 131.6">
  <defs>
    <style>
      .cls-1 {
        font-size: 19.5px;
      }

      .cls-1, .cls-2, .cls-3, .cls-4, .cls-5, .cls-6, .cls-7, .cls-8 {
        stroke: #603813;
        stroke-miterlimit: 10;
      }

      .cls-1, .cls-2, .cls-3, .cls-4, .cls-7, .cls-9, .cls-8 {
        isolation: isolate;
      }

      .cls-1, .cls-2, .cls-3, .cls-4, .cls-7, .cls-8 {
        fill: #fff;
        font-family: ComicSansMS-Bold, 'Comic Sans MS';
        font-weight: 700;
        stroke-width: .6px;
      }

      .cls-2 {
        font-size: 18.6px;
      }

      .cls-3 {
        font-size: 18.2px;
      }

      .cls-4 {
        font-size: 19.4px;
      }

      .cls-5 {
        stroke-width: 1.3px;
      }

      .cls-5, .cls-6 {
        fill: #231f20;
      }

      .cls-6 {
        stroke-width: .8px;
      }

      .cls-7 {
        font-size: 19.5px;
      }

      .cls-8 {
        font-size: 18.2px;
      }
    </style>
  </defs>
  <g id="LOGO">
    <g id="football-2">
      <g id="football-3">
        <path class="cls-6" d="m62.9,59.4h0s.1.4.1.4h.3c0,.1-.4-.4-.4-.4h0Z"/>
      </g>
      <polygon id="football-4" class="cls-5" points="63 59.3 63 59.3 63.1 59.8 38.8 51.3 38.8 26.5 58.9 11.1 83.6 19.6 83.6 44.5 63 59.3"/>
      <path id="football-5" class="cls-5" d="m104.3,59.4l-7.9,24.2h-25.6l-7.8-23.7h.3c0,.1-.4-.4-.4-.4l20.7-14.9,20.7,14.9Z"/>
      <polygon id="football-6" class="cls-5" points="128.5 25.6 128.5 25.6 128.8 25.3 129.1 51 105.5 59.5 84 45.8 83.7 19.8 107.3 11.4 128.5 25.6"/>
      <polygon id="football-7" class="cls-5" points="135.6 96.1 135.6 96.1 136 96.4 111.1 103.6 96.5 83.3 104 59 129.1 51.7 143.7 72 135.6 96.1"/>
      <polygon id="football-8" class="cls-5" points="70.8 124.5 70.8 124.5 70.6 125 56 103.8 70.8 83.7 96.3 83.1 111.2 104.5 96.3 124.6 70.8 124.5"/>
      <polygon id="football-9" class="cls-5" points="23.5 71.6 23.5 71.5 23.1 71.5 39.6 51.7 63.1 60.4 70.6 84.7 53.9 104.7 30.4 96 23.5 71.6"/>
      <polygon id="football-10" class="cls-5" points="107.3 11.5 104.3 .7 65.3 .7 58.8 11.2 83.7 20 107.3 11.5"/>
      <polygon id="football-11" class="cls-5" points="143.8 72 153.2 65.6 140.5 29 128.4 26.3 128.1 52.5 143.8 72"/>
      <polygon id="football-12" class="cls-5" points="96.4 123.5 105.1 130.8 137.2 108.9 136.6 96.6 111.1 103.3 96.4 123.5"/>
      <polygon id="football-13" class="cls-5" points="38.9 27.2 27.6 26.3 14.1 62.6 21.8 72.2 38.8 52.2 38.9 27.2"/>
      <polygon id="football-14" class="cls-5" points="31.2 97.3 27.4 107.9 59.2 130.1 70.6 125.2 55.4 103.8 31.2 97.3"/>
    </g>
    <path class="cls-5" d="m13.2,103c-4.1-6.5-8.2-12.9-12.3-19.4,12.6-7.8,25.2-15.5,37.9-23.3,13.1-1.9,26.2-3.8,39.4-5.7,4.5.2,9.5,0,15-.8,18.7-2.8,32.2-11.6,39.8-17.6,9.6-1.8,19.1-3.6,28.7-5.4,1.9,6.9,3.8,13.9,5.6,20.8-12.6,4.1-25.2,8.2-37.8,12.2-5,3.2-12.5,7.4-22.5,10.1-11.4,3.1-21.2,2.9-27.5,2.3-10.9,1.6-21.8,3.1-32.6,4.6-11.2,7.4-22.4,14.7-33.6,22.1h0Z"/>
    <g id="billy_beer" data-name="billy beer">
      <g class="cls-9">
        <text class="cls-7" transform="translate(15.4 97.9) rotate(-35.2) scale(1.1 1) skewX(.4)"><tspan x="0" y="0">B</tspan></text>
      </g>
      <g class="cls-9">
        <text class="cls-2" transform="translate(30.8 87.4) rotate(-32.3) scale(1.1 1) skewX(.4)"><tspan x="0" y="0">I</tspan></text>
      </g>
      <g class="cls-9">
        <text class="cls-1" transform="translate(47.1 78.2) rotate(-26.3) skewX(.3)"><tspan x="0" y="0">L</tspan></text>
      </g>
      <g class="cls-9">
        <text class="cls-1" transform="translate(63.5 75.8) rotate(-26.3) skewX(.3)"><tspan x="0" y="0">L</tspan></text>
      </g>
      <g class="cls-9">
        <text class="cls-4" transform="translate(76.3 72.8)"><tspan x="0" y="0">Y</tspan></text>
      </g>
      <g class="cls-9">
        <text class="cls-1" transform="translate(103 73.5) rotate(-26.3) scale(1.1 1) skewX(.3)"><tspan x="0" y="0">B</tspan></text>
      </g>
      <g class="cls-9">
        <text class="cls-8" transform="translate(119.8 67.1) rotate(-30.1) scale(1 1) skewX(.4)"><tspan x="0" y="0">E</tspan></text>
      </g>
      <g class="cls-9">
        <text class="cls-8" transform="translate(134.1 59.3) rotate(-30.1) scale(1 1) skewX(.4)"><tspan x="0" y="0">E</tspan></text>
      </g>
      <g class="cls-9">
        <text class="cls-3" transform="translate(149 52.7) rotate(-26.3) skewX(.3)"><tspan x="0" y="0">R</tspan></text>
      </g>
    </g>
  </g>
</svg>